<svg width="32" height="32" viewBox="0 0 32 32" fill="none" xmlns="http://www.w3.org/2000/svg">
<path d="M7.92943 26.9882C7.6709 26.9882 7.45136 26.8963 7.2708 26.7126C7.09027 26.5289 7 26.3098 7 26.0551C7 25.8004 7.09027 25.5814 7.2708 25.398C7.45136 25.2146 7.6709 25.1229 7.92943 25.1229H23.673C23.9316 25.1229 24.1522 25.2144 24.3349 25.3975C24.5176 25.5806 24.6089 25.799 24.6089 26.0528C24.6089 26.3115 24.5176 26.532 24.3349 26.7145C24.1522 26.897 23.9316 26.9882 23.673 26.9882H7.92943ZM15.8012 22.1934C13.75 22.1934 12.149 21.5697 10.9981 20.3225C9.84721 19.0752 9.27177 17.404 9.27177 15.3088V6.17723C9.27177 5.84987 9.38692 5.57394 9.61723 5.34943C9.84755 5.12494 10.1253 5.0127 10.4505 5.0127C10.7758 5.0127 11.0501 5.12494 11.2736 5.34943C11.4971 5.57394 11.6089 5.84996 11.6089 6.17749V15.4319C11.6089 16.8036 11.9725 17.901 12.6996 18.7241C13.4267 19.5473 14.4606 19.9588 15.8012 19.9588C17.144 19.9588 18.1794 19.5473 18.9077 18.7241C19.6359 17.901 20 16.8036 20 15.4319V6.17749C20 5.84996 20.1151 5.57394 20.3454 5.34943C20.5757 5.12494 20.8535 5.0127 21.1788 5.0127C21.504 5.0127 21.7783 5.12494 22.0018 5.34943C22.2253 5.57394 22.3371 5.84987 22.3371 6.17723V15.3088C22.3371 17.404 21.7611 19.0752 20.6091 20.3225C19.4571 21.5697 17.8545 22.1934 15.8012 22.1934Z" fill="#333333"/>
</svg>
