<svg width="102" height="44" viewBox="0 0 102 44" fill="none" xmlns="http://www.w3.org/2000/svg">
<path d="M43.598 19V4.45455H52.7173V6.34375H45.7926V10.7756H52.2415V12.6577H45.7926V17.1108H52.8026V19H43.598ZM67.7298 9.18466H65.5138C65.4286 8.71117 65.27 8.29451 65.038 7.93466C64.806 7.57481 64.5219 7.26941 64.1857 7.01847C63.8496 6.76752 63.4731 6.57812 63.0565 6.45028C62.6445 6.32244 62.2066 6.25852 61.7425 6.25852C60.9045 6.25852 60.154 6.46922 59.4911 6.89062C58.833 7.31203 58.3121 7.92992 57.9286 8.74432C57.5498 9.55871 57.3604 10.553 57.3604 11.7273C57.3604 12.911 57.5498 13.91 57.9286 14.7244C58.3121 15.5388 58.8353 16.1544 59.4982 16.571C60.1611 16.9877 60.9068 17.196 61.7354 17.196C62.1947 17.196 62.6303 17.1345 63.0423 17.0114C63.4589 16.8835 63.8353 16.6965 64.1715 16.4503C64.5077 16.2041 64.7918 15.9034 65.0238 15.5483C65.2605 15.1884 65.4239 14.7765 65.5138 14.3125L67.7298 14.3196C67.6114 15.0346 67.3817 15.6927 67.0408 16.294C66.7047 16.8906 66.2714 17.4067 65.7411 17.8423C65.2156 18.2732 64.6142 18.607 63.9371 18.8438C63.2601 19.0805 62.5214 19.1989 61.7212 19.1989C60.4618 19.1989 59.3396 18.9006 58.3548 18.304C57.3699 17.7027 56.5934 16.8433 56.0252 15.7259C55.4618 14.6084 55.18 13.2756 55.18 11.7273C55.18 10.1742 55.4641 8.84138 56.0323 7.72869C56.6005 6.61127 57.377 5.75426 58.3619 5.15767C59.3467 4.55634 60.4665 4.25568 61.7212 4.25568C62.493 4.25568 63.2127 4.36695 63.8803 4.58949C64.5527 4.80729 65.1564 5.12926 65.6914 5.5554C66.2264 5.9768 66.6692 6.4929 67.0195 7.10369C67.3699 7.70975 67.6067 8.40341 67.7298 9.18466ZM82.0959 4.45455V19H80.0788L72.6854 8.33239H72.5504V19H70.3558V4.45455H72.3871L79.7876 15.1364H79.9226V4.45455H82.0959ZM86.8242 4.45455L90.3043 10.1435H90.418L93.8981 4.45455H96.4407L91.9094 11.7273L96.4691 19H93.9123L90.418 13.3892H90.3043L86.81 19H84.2532L88.891 11.7273L84.2816 4.45455H86.8242Z" fill="#177BFE"/>
<path d="M0 26.5H11.3743L12.9825 21.206C13.2565 20.3039 14.5122 20.2474 14.8662 21.1213L18.6648 30.5C20.8491 21.9932 22.2446 16.5585 24.1481 9.14541C24.4231 8.07446 25.9765 8.17404 26.1098 9.27166L29.8295 39.8844C29.9562 40.9267 31.3983 41.0944 31.7608 40.109L36.3231 27.7049C36.6274 26.8775 37.7852 26.8396 38.1705 27.6324V27.6324C38.5353 28.3829 39.6128 28.4 39.9776 27.6495L41.0223 25.5H102" stroke="#1ECFA7" stroke-width="1.5"/>
</svg>
