<svg width="33" height="32" viewBox="0 0 33 32" fill="none" xmlns="http://www.w3.org/2000/svg">
<path d="M11.891 24.7256C11.3645 24.7256 10.9177 24.5421 10.5506 24.175C10.1835 23.8079 10 23.3611 10 22.8346V9.16538C10 8.63889 10.1835 8.19211 10.5506 7.82505C10.9177 7.45796 11.3645 7.27441 11.891 7.27441H16.3038C17.6696 7.27441 18.8758 7.69578 19.9224 8.53852C20.9689 9.38125 21.4922 10.4808 21.4922 11.8372C21.4922 12.7235 21.2634 13.5049 20.8057 14.1814C20.348 14.8579 19.773 15.3449 19.0807 15.6423V15.7231C19.926 15.959 20.6373 16.4532 21.2147 17.2058C21.792 17.9584 22.0807 18.856 22.0807 19.8987C22.0807 21.3944 21.5063 22.5728 20.3576 23.4339C19.2089 24.2951 17.9376 24.7256 16.5435 24.7256H11.891ZM12.473 22.4731H16.4089C17.3508 22.4731 18.1134 22.1923 18.6968 21.6308C19.2801 21.0693 19.5718 20.4133 19.5718 19.6628C19.5718 18.9167 19.2801 18.2628 18.6968 17.7013C18.1134 17.1397 17.3448 16.8589 16.391 16.8589H12.473V22.4731ZM12.473 14.6885H16.1371C16.9474 14.6885 17.6318 14.4406 18.1904 13.9449C18.7489 13.4492 19.0282 12.8299 19.0282 12.0872C19.0282 11.3325 18.7442 10.7109 18.1763 10.2224C17.6083 9.73395 16.9333 9.48971 16.1512 9.48971H12.473V14.6885Z" fill="#333333"/>
</svg>
