<svg width="32" height="32" viewBox="0 0 32 32" fill="none" xmlns="http://www.w3.org/2000/svg">
<path d="M5.14103 29.5318C4.82223 29.5318 4.55236 29.4214 4.3314 29.2004C4.11047 28.9795 4 28.7096 4 28.3908V25.9613C4 25.6468 4.11047 25.3791 4.3314 25.1581C4.55236 24.9372 4.82223 24.8267 5.14103 24.8267H27.6602C27.9747 24.8267 28.2424 24.9372 28.4634 25.1581C28.6843 25.3791 28.7948 25.6468 28.7948 25.9613V28.3908C28.7948 28.7096 28.6843 28.9795 28.4634 29.2004C28.2424 29.4214 27.9747 29.5318 27.6602 29.5318H5.14103ZM9.86407 20.1985C9.50596 20.1985 9.22477 20.053 9.0205 19.762C8.81623 19.4709 8.78162 19.1575 8.91667 18.8216L15.1167 3.08954C15.1893 2.90581 15.3083 2.75624 15.4737 2.64084C15.6391 2.52546 15.8213 2.46777 16.0205 2.46777H16.7807C16.9824 2.46777 17.1642 2.52546 17.3262 2.64084C17.4882 2.75624 17.6076 2.90581 17.6845 3.08954L23.8756 18.7934C24.0106 19.1336 23.9739 19.4528 23.7653 19.7511C23.5568 20.0494 23.2735 20.1985 22.9154 20.1985C22.6923 20.1985 22.4923 20.1376 22.3154 20.0158C22.1385 19.894 22.0073 19.725 21.9218 19.5088L20.35 15.3729H12.4076L10.7948 19.5421C10.7093 19.743 10.5858 19.9026 10.4243 20.0209C10.2628 20.1393 10.076 20.1985 9.86407 20.1985ZM13.0563 13.5332H19.6603L16.4641 5.13311H16.3051L13.0563 13.5332Z" fill="#333333"/>
</svg>
